<?xml version="1.0" standalone="no"?>
<!DOCTYPE svg PUBLIC "-//W3C//DTD SVG 20010904//EN"
 "http://www.w3.org/TR/2001/REC-SVG-20010904/DTD/svg10.dtd">
<svg version="1.0" xmlns="http://www.w3.org/2000/svg"
 width="256.000000pt" height="256.000000pt" viewBox="0 0 256.000000 256.000000"
 preserveAspectRatio="xMidYMid meet">
<metadata>
Created by potrace 1.14, written by Peter Selinger 2001-2017
</metadata>
<g transform="translate(0.000000,256.000000) scale(0.100000,-0.100000)"
fill="#000000" stroke="none">
<path d="M530 2380 c0 -5 -13 -10 -30 -10 -16 0 -30 -4 -30 -10 0 -5 -11 -10
-25 -10 -14 0 -25 -4 -25 -10 0 -5 -11 -10 -25 -10 -14 0 -25 -4 -25 -10 0 -5
-13 -10 -30 -10 -23 0 -30 -4 -30 -20 0 -13 -7 -20 -20 -20 -13 0 -20 -7 -20
-20 0 -15 -7 -20 -25 -20 -18 0 -25 -5 -25 -20 0 -13 -7 -20 -20 -20 -13 0
-20 -7 -20 -20 0 -11 -7 -20 -15 -20 -8 0 -15 -9 -15 -20 0 -11 -7 -20 -15
-20 -9 0 -15 -9 -15 -25 0 -16 -6 -25 -15 -25 -10 0 -15 -11 -15 -35 0 -19 -4
-35 -10 -35 -5 0 -10 -16 -10 -35 0 -19 -4 -35 -10 -35 -6 0 -10 -52 -10 -135
0 -83 4 -135 10 -135 6 0 10 -16 10 -35 0 -28 4 -35 20 -35 16 0 20 -7 20 -30
0 -16 5 -30 10 -30 6 0 10 -11 10 -25 0 -18 5 -25 20 -25 15 0 20 -7 20 -25 0
-18 5 -25 20 -25 14 0 20 -7 20 -24 0 -13 5 -26 11 -28 8 -3 14 -63 20 -173 5
-105 12 -171 18 -173 8 -3 11 -125 11 -392 0 -213 3 -402 6 -419 4 -17 13 -31
20 -31 9 0 14 -11 14 -30 0 -20 5 -30 15 -30 8 0 15 -4 15 -10 0 -5 11 -10 25
-10 16 0 25 -6 25 -15 0 -10 10 -15 30 -15 17 0 30 -4 30 -9 0 -5 26 -12 58
-16 31 -4 60 -12 64 -19 10 -16 1406 -16 1416 0 4 7 33 15 65 19 31 4 57 11
57 16 0 5 14 9 30 9 20 0 30 5 30 15 0 9 9 15 25 15 14 0 25 5 25 10 0 6 7 10
15 10 10 0 15 10 15 30 0 19 5 30 14 30 7 0 16 14 20 31 3 17 6 206 6 419 0
267 3 389 11 392 6 2 13 68 18 173 6 110 12 170 20 173 6 2 11 15 11 28 0 17
6 24 20 24 15 0 20 7 20 25 0 18 5 25 20 25 15 0 20 7 20 25 0 14 5 25 10 25
6 0 10 14 10 30 0 23 4 30 20 30 16 0 20 7 20 35 0 19 5 35 10 35 6 0 10 52
10 135 0 83 -4 135 -10 135 -5 0 -10 16 -10 35 0 19 -4 35 -10 35 -5 0 -10 16
-10 35 0 24 -5 35 -15 35 -9 0 -15 9 -15 25 0 16 -6 25 -15 25 -8 0 -15 9 -15
20 0 11 -7 20 -15 20 -8 0 -15 9 -15 20 0 13 -7 20 -20 20 -13 0 -20 7 -20 20
0 15 -7 20 -25 20 -18 0 -25 5 -25 20 0 13 -7 20 -20 20 -13 0 -20 7 -20 20 0
16 -7 20 -30 20 -16 0 -30 5 -30 10 0 6 -11 10 -25 10 -14 0 -25 5 -25 10 0 6
-11 10 -25 10 -14 0 -25 5 -25 10 0 6 -13 10 -30 10 -16 0 -30 5 -30 10 0 18
-183 11 -292 -10 -124 -25 -178 -40 -178 -52 0 -4 -9 -8 -20 -8 -11 0 -20 -4
-20 -10 0 -5 -11 -10 -25 -10 -14 0 -25 -4 -25 -10 0 -5 -16 -12 -35 -16 -19
-3 -35 -10 -35 -15 0 -5 -7 -9 -15 -9 -8 0 -15 -4 -15 -10 0 -5 -11 -10 -25
-10 -15 0 -25 -6 -25 -14 0 -8 -9 -18 -20 -21 -27 -9 -60 3 -60 21 0 8 -10 14
-25 14 -14 0 -25 5 -25 10 0 6 -7 10 -15 10 -8 0 -15 4 -15 9 0 5 -16 12 -35
15 -19 4 -35 11 -35 16 0 6 -11 10 -25 10 -14 0 -25 5 -25 10 0 6 -9 10 -20
10 -11 0 -20 4 -20 8 0 12 -54 27 -178 52 -109 21 -292 28 -292 10z"/>
</g>
</svg>
